<svg width="71" height="71" viewBox="0 0 71 71" fill="none" xmlns="http://www.w3.org/2000/svg">
<g clip-path="url(#clip0_3_7)">
<path d="M33.31 39.02C32.35 39 31.45 38.83 30.6 38.49C29.75 38.15 29.02 37.69 28.39 37.1L25.29 34H17.66V36.5H22.7V39.02H10.13V36.5H15.17V23.95H10.13V21.43H28.01C28.97 21.43 29.87 21.59 30.71 21.92C31.55 22.25 32.28 22.7 32.91 23.26C33.54 23.82 34.03 24.5 34.39 25.26C34.75 26.02 34.93 26.84 34.93 27.71C34.93 28.51 34.77 29.27 34.46 29.99C34.15 30.71 33.72 31.35 33.16 31.9C32.61 32.45 31.96 32.91 31.22 33.27C30.48 33.63 29.67 33.86 28.81 33.95L30.18 35.32C30.6 35.69 31.08 35.98 31.62 36.18C32.16 36.39 32.76 36.49 33.4 36.49H35.99V39.01H33.33L33.31 39.02ZM27.86 31.48C28.47 31.48 29.03 31.38 29.55 31.18C30.07 30.98 30.52 30.71 30.91 30.38C31.29 30.04 31.59 29.65 31.81 29.19C32.03 28.73 32.13 28.24 32.13 27.71C32.13 27.18 32.02 26.69 31.81 26.23C31.59 25.77 31.29 25.38 30.91 25.04C30.53 24.7 30.07 24.44 29.55 24.24C29.03 24.04 28.47 23.94 27.86 23.94H17.66V31.48H27.86V31.48Z" fill="#C1272D"/>
<path d="M53.41 31.43C54.8 31.43 56.11 31.66 57.32 32.13C58.54 32.59 59.6 33.22 60.5 34.01C61.4 34.8 62.12 35.73 62.65 36.81C63.18 37.88 63.44 39.03 63.44 40.24C63.44 41.45 63.18 42.6 62.65 43.66C62.12 44.72 61.41 45.65 60.5 46.44C59.59 47.23 58.54 47.86 57.32 48.32C56.1 48.78 54.8 49.02 53.41 49.02H37.47V46.5H42.51V33.95H37.47V31.43H53.41V31.43ZM53.27 46.5C54.31 46.5 55.29 46.34 56.2 46.01C57.11 45.68 57.91 45.23 58.6 44.67C59.29 44.1 59.83 43.44 60.22 42.68C60.61 41.92 60.81 41.11 60.81 40.24C60.81 39.37 60.61 38.56 60.22 37.79C59.83 37.02 59.29 36.35 58.6 35.79C57.91 35.22 57.11 34.77 56.2 34.45C55.29 34.12 54.31 33.96 53.27 33.96H45.01V46.51H53.27V46.5Z" fill="#C1272D"/>
<path d="M35.25 70.5C15.81 70.5 0 54.69 0 35.25C0 15.81 15.81 0 35.25 0C54.69 0 70.5 15.81 70.5 35.25C70.5 54.69 54.69 70.5 35.25 70.5ZM35.25 2C16.92 2 2 16.92 2 35.25C2 53.58 16.92 68.5 35.25 68.5C53.58 68.5 68.5 53.58 68.5 35.25C68.5 16.92 53.58 2 35.25 2Z" fill="#C1272D"/>
</g>
<defs>
<clipPath id="clip0_3_7">
<rect width="70.5" height="70.5" fill="white"/>
</clipPath>
</defs>
</svg>
